<svg width="10" height="18" viewBox="0 0 10 18" fill="none" xmlns="http://www.w3.org/2000/svg">
<path d="M9.314 8.217H8.92201V7.82501H8.53001V7.43101H8.13801V7.03901V6.64701V6.255V5.86301V5.47101V5.079V4.68701V4.29501V3.90302V3.51101V3.11901V2.72701V2.33301H7.74601H7.352V2.72701V3.11901V3.51101V3.90302V4.29501V4.68701V5.079V5.47101V5.86301V6.255V6.64701V7.03901V7.43101H6.96001H6.56801V7.03901V6.64701V6.255V5.86301V5.47101V5.079V4.68701V4.29501V3.90302V3.51101V3.11901V2.72701H6.176H5.78401V2.33301H5.392H5.00001H4.60801H4.216V2.72701H3.82401H3.43201V3.11901V3.51101V3.90302V4.29501V4.68701V5.079V5.47101V5.86301V6.255H3.04H2.64601V5.86301V5.47101V5.079V4.68701V4.29501V3.90302V3.51101V3.11901V2.72701V2.33301H2.254H1.86201V2.72701V3.11901V3.51101V3.90302V4.29501V4.68701V5.079V5.47101V5.86301V6.255V6.64701H2.254H2.64601V7.03901H3.04H3.43201V6.64701H3.82401H4.216V6.255V5.86301V5.47101V5.079V4.68701V4.29501V3.90302V3.51101H4.60801V3.11901H5.00001H5.392V3.51101H5.78401V3.90302V4.29501V4.68701V5.079V5.47101V5.86301V6.255V6.64701V7.03901V7.43101H5.392H5.00001H4.60801H4.216H3.82401H3.43201H3.04H2.64601H2.254H1.86201H1.47001V7.82501H1.078V8.217H0.686011V8.60901H0.294006V9.00101V9.39301V9.78501V10.177V10.569V10.961V11.353V11.745V12.137V12.531V12.923V13.315V13.707V14.099V14.491V14.883V15.275V15.667V16.059H0.686011V16.451H1.078V16.843H1.47001V17.235H1.86201H2.254H2.64601H3.04H3.43201H3.82401H4.216H4.60801H5.00001H5.392H5.78401H6.176H6.56801H6.96001H7.352H7.74601H8.13801H8.53001V16.843H8.92201V16.451H9.314V16.059H9.70601V15.667V15.275V14.883V14.491V14.099V13.707V13.315V12.923V12.531V12.137V11.745V11.353V10.961V10.569V10.177V9.78501V9.39301V9.00101V8.60901H9.314V8.217ZM6.176 11.353V11.745V12.137H5.78401V12.531V12.923V13.315V13.707H5.392V14.099H5.00001V13.707H4.60801V13.315V12.923V12.531V12.137H4.216V11.745V11.353V10.961H4.60801V10.569H5.00001H5.392H5.78401V10.961H6.176V11.353ZM8.92201 10.961V11.353H8.53001V10.961V10.569H8.92201V10.961ZM8.92201 9.39301V9.78501V10.177H8.53001V9.78501V9.39301V9.00101H8.13801V8.60901H7.74601H7.352V8.217H7.74601H8.13801V8.60901H8.53001V9.00101H8.92201V9.39301Z" fill="#B07E07"/>
<path d="M3.43199 2.33301V1.94102H3.824H4.21599V1.54901H4.608H5H5.39199H5.784V1.94102H6.17599H6.56799V2.33301H6.96H7.35199V1.94102V1.54901H6.96H6.56799V1.15701H6.17599H5.784V0.765015H5.39199H5H4.608H4.21599V1.15701H3.824H3.43199V1.54901H3.03999H2.646V1.94102V2.33301H3.03999H3.43199Z" fill="#B07E07"/>
</svg>
