<svg width="16" height="20" viewBox="0 0 16 20" fill="none" xmlns="http://www.w3.org/2000/svg">
<path d="M5.2807 6.96387H6.64029V9.56442H5.2807V6.96387Z" fill="#B07E07"/>
<path d="M14.0799 5.96699V4.39581H13.1991V0.852661H2.79099V4.39581H1.91017V5.96699H0.847168V10.6914H2.59922V12.7068H3.95881V5.6307H12.0307V12.7068H13.3903V10.6914H15.1423V5.96699H14.0697H14.0799ZM2.20661 8.89311H1.37373V7.95055H2.20661V8.89311ZM14.6251 8.89311H13.7923V7.95055H14.6251V8.89311Z" fill="#B07E07"/>
<path d="M9.3595 6.96387H10.7191V9.56442H9.3595V6.96387Z" fill="#B07E07"/>
<path d="M14.0033 15.167H12.5383V13.8446H9.96296V12.7068H10.8246V10.6914H9.35955V12.0029H6.64041V10.6914H5.17535V12.7068H6.037V13.8446H3.46169V15.167H1.99663V16.5103H0.847351V19.3712H2.59941V17.4318H3.94941V19.3712H6.19941V17.3994H9.78975V19.3712H12.0398V17.4318H13.3898V19.3712H15.1418V16.5103H13.9925V15.167H14.0033ZM5.96976 17.1714H4.83006V15.8491H5.96976V17.1714ZM9.79034 15.1996H6.19999V14.0074H9.79034V15.1996ZM11.1595 17.1714H10.0198V15.8491H11.1595V17.1714Z" fill="#B07E07"/>
</svg>
